<svg id="ad6b258d-f8e5-4f36-b9b7-b794f2b97b42" data-name="Layer 1" xmlns="http://www.w3.org/2000/svg" viewBox="0 0 280.19 58.08"><path id="f4f81b4b-f1ae-479f-99d1-7dc4c6f0aab1" data-name="Path 9" d="M8.05,55.08,3.34,42.16H271.11l4.71,12.92Z"/><g id="b4cd905a-856a-4d1e-81f2-ddce2805ad53" data-name="Group 12"><path id="bd4ac13c-ebca-4a51-9b2e-ef1c85951845" data-name="Path 10" d="M275.82,55.08l-4.71-12.92L272.28,3,277,15.92Z"/></g><g id="eaca3c8f-3d8e-4c4b-bb3c-c2c25eb25331" data-name="Group 13"><path id="a3fdbd77-4274-4b46-8562-2199b6a62fe2" data-name="Path 11" d="M9.22,15.92,4.51,3H272.28L277,15.92Z" style="fill:#1c3858"/></g><g id="f379eaf9-73c3-4600-958e-a00e35d29919" data-name="Group 14"><path id="fe85d61b-c876-4ac0-8a76-98acc46dfb13" data-name="Path 12" d="M8.05,55.08,3.34,42.16,4.51,3,9.22,15.92Z" style="fill:#172d46"/></g><g id="baf10492-ec5a-4428-a328-167c83ca266d" data-name="Group 15"><path id="a0095f7c-533e-4c2d-859f-6d69049bd31c" data-name="Path 13" d="M277,15.92l-1.17,39.16H8.05L9.22,15.92Z" style="fill:#fff"/></g><g id="abda4790-6bd2-41b0-b3aa-262f0c72fb8b" data-name="Group 16"><path id="fbcce6a2-9c1f-460c-b740-dedec1667e66" data-name="Path 14" d="M4.85,58.08.14,45.17,1.5,0,6.2,12.92Z"/></g><g id="b831a708-8a7a-4057-8ba8-9eb09cb07f72" data-name="Group 17"><path id="b6b3f295-d912-4511-804b-6d4dc6a7ee94" data-name="Path 15" d="M6.2,12.92,1.5,0h274l4.71,12.92Z"/></g><g id="a56a984b-68c4-4e7a-963f-c1844735c3b4" data-name="Group 18"><path id="bee55fa7-ccba-4bd8-8073-5d2b4e232a80" data-name="Path 16" d="M6.2,12.92h274l-1.36,45.16H4.85ZM275.82,55.08,277,15.92H9.22L8.05,55.08H275.82"/></g><g style="isolation:isolate"><g style="isolation:isolate"><path d="M236.79,38.16c0-.81-.29-1.41-.89-1.41a1.07,1.07,0,0,0-.78.52,1.82,1.82,0,0,0-.31.89h-2.37V28.1h6.79v2.78h-4.37v4a3.53,3.53,0,0,1,1-.58,1.13,1.13,0,0,1,.57-.07A2.76,2.76,0,0,1,239.13,36a5.84,5.84,0,0,1,.46,2.21v4.26a7.4,7.4,0,0,1-.54,3.15,3.17,3.17,0,0,1-3.12,1.84,3,3,0,0,1-3.12-1.95,9.66,9.66,0,0,1-.55-3.82h2.81v.76a7,7,0,0,0,.18,2c.13.39.34.57.68.57a.7.7,0,0,0,.65-.55,6.73,6.73,0,0,0,.21-2Z"/><path d="M248.62,43.28a5.39,5.39,0,0,1-.47,2.08,3.63,3.63,0,0,1-1.12,1.4,3.31,3.31,0,0,1-2.16.65,3.39,3.39,0,0,1-2.18-.65,3.45,3.45,0,0,1-1.09-1.4,5.05,5.05,0,0,1-.47-2.08V32A5,5,0,0,1,241.6,30a3.54,3.54,0,0,1,1.09-1.43,3.58,3.58,0,0,1,2.18-.65,3.49,3.49,0,0,1,2.16.65A3.71,3.71,0,0,1,248.15,30a5.37,5.37,0,0,1,.47,2.05ZM245.81,32a1.72,1.72,0,0,0-.37-1.19.8.8,0,0,0-.57-.21.86.86,0,0,0-.83.7,2,2,0,0,0-.1.7V43.28a1.67,1.67,0,0,0,.39,1.2.73.73,0,0,0,.54.2.81.81,0,0,0,.83-.7,1.74,1.74,0,0,0,.11-.7Z"/><path d="M254.21,35.64a2.48,2.48,0,0,1-.86,1.9,1.7,1.7,0,0,1-1.15.33,1.79,1.79,0,0,1-1.79-1.12,2.37,2.37,0,0,1-.23-1.11V30.1a2.3,2.3,0,0,1,.85-1.87,1.67,1.67,0,0,1,1.17-.34A1.82,1.82,0,0,1,254,29a3,3,0,0,1,.26,1.09Zm-2.73,11.57,7-19.11h1.66l-6.94,19.11Zm1.17-17.11a1,1,0,0,0-.19-.6c-.05-.08-.13-.1-.26-.1s-.36.18-.44.36a.76.76,0,0,0,0,.34v5.54c0,.28,0,.7.46.7s.45-.42.45-.7Zm8.86,15.1a2.39,2.39,0,0,1-.86,1.88,1.69,1.69,0,0,1-1.14.33,1.83,1.83,0,0,1-1.79-1.09,2.38,2.38,0,0,1-.24-1.12V39.67a2.34,2.34,0,0,1,.86-1.9,1.72,1.72,0,0,1,1.17-.34,1.81,1.81,0,0,1,1.74,1.12,2.88,2.88,0,0,1,.26,1.12ZM260,39.67a1.09,1.09,0,0,0-.18-.6.27.27,0,0,0-.26-.11c-.29,0-.36.19-.44.37a.75.75,0,0,0,0,.34V45.2a.74.74,0,0,0,.18.6.35.35,0,0,0,.29.13c.23,0,.31-.18.39-.36a1.44,1.44,0,0,0,.05-.37Z"/></g></g></svg>