<svg id="af83275a-4e4a-4273-841d-0ab7b72b3058" data-name="Layer 1" xmlns="http://www.w3.org/2000/svg" viewBox="0 0 118.41 58.09"><path id="afef2666-a822-4d47-a70f-988f442a9806" data-name="Path 17" d="M7.9,55.08,3.2,42.17H109.34L114,55.08Z"/><g id="f23a51d2-d52d-40fd-a47d-7453ab3ce475" data-name="Group 22"><path id="aa8906fb-68fc-4688-a6b6-045f1024da40" data-name="Path 18" d="M114,55.08l-4.7-12.91L110.51,3l4.71,12.91Z"/></g><g id="ae56233a-1861-4963-a884-8174ad2d71ee" data-name="Group 23"><path id="febc2ce0-0471-42f6-b50b-0b073e4dce0a" data-name="Path 19" d="M9.08,15.92,4.37,3H110.51l4.71,12.91Z" style="fill:#a63517"/></g><g id="b35774c8-4329-4fcd-893f-578902ce7f69" data-name="Group 24"><path id="aa243ad6-b117-4412-ac27-c09fb257b284" data-name="Path 20" d="M7.91,55.08,3.2,42.17,4.37,3,9.08,15.92Z" style="fill:#7a2b10"/></g><g id="a9256ca4-4db2-4381-96d9-3fea9792da79" data-name="Group 25"><path id="a7a5e5e7-b793-4006-ab23-a986c9572025" data-name="Path 21" d="M6.06,12.92H118.41l-1.35,45.17H4.71ZM114,55.08l1.18-39.16H9.08L7.9,55.08H114"/></g><g id="fb4602ef-d213-4a22-8bf0-d5bf63e2a760" data-name="Group 26"><path id="f40ac1eb-0afe-410e-8240-64508e60bb27" data-name="Path 22" d="M115.22,15.92,114,55.08H7.91L9.08,15.92Z" style="fill:#fff"/></g><g id="e8f8f78c-eab6-4e93-864e-a2362beb754e" data-name="Group 27"><path id="a16fcd7b-801e-45aa-8748-ef0a37e97bf0" data-name="Path 23" d="M4.71,58.09,0,45.17,1.35,0,6.06,12.92Z"/></g><path id="f28418c5-e70b-4279-a7ab-d5cfa2465146" data-name="Path 24" d="M6.06,12.92,1.35,0H113.71l4.7,12.92Z"/><g style="isolation:isolate"><g style="isolation:isolate"><path d="M71.82,32.7V31.37a6.79,6.79,0,0,1,.73-3.43,3.23,3.23,0,0,1,3-1.51,3.37,3.37,0,0,1,3,1.38,6.18,6.18,0,0,1,.78,3.38,17.7,17.7,0,0,1-1.64,6.42A46.64,46.64,0,0,1,74.92,43h4.44v2.78H71.74V43c.86-1.33,1.64-2.68,2.34-4a26.4,26.4,0,0,0,1.62-3.77,13.34,13.34,0,0,0,.8-3.8,6,6,0,0,0-.15-1.56c-.13-.44-.37-.78-.78-.78s-.63.29-.76.71a6,6,0,0,0-.18,1.63V32.7Z"/><path d="M88.67,41.83a5.21,5.21,0,0,1-.47,2.08,3.54,3.54,0,0,1-1.12,1.4,3.3,3.3,0,0,1-2.15.65,3.4,3.4,0,0,1-2.19-.65,3.45,3.45,0,0,1-1.09-1.4,5.21,5.21,0,0,1-.47-2.08V30.57a5.2,5.2,0,0,1,.47-2.06,3.54,3.54,0,0,1,1.09-1.43,3.59,3.59,0,0,1,2.19-.65,3.48,3.48,0,0,1,2.15.65,3.62,3.62,0,0,1,1.12,1.43,5.2,5.2,0,0,1,.47,2.06ZM85.86,30.57a1.74,1.74,0,0,0-.36-1.2.81.81,0,0,0-.57-.21.88.88,0,0,0-.84.71,2.15,2.15,0,0,0-.1.7V41.83A1.64,1.64,0,0,0,84.38,43a.75.75,0,0,0,.55.21.82.82,0,0,0,.83-.7,1.79,1.79,0,0,0,.1-.7Z"/><path d="M94.26,34.18a2.45,2.45,0,0,1-.86,1.9,1.69,1.69,0,0,1-1.14.34,1.81,1.81,0,0,1-1.8-1.12,2.54,2.54,0,0,1-.23-1.12V28.64a2.29,2.29,0,0,1,.86-1.87,1.72,1.72,0,0,1,1.17-.34A1.83,1.83,0,0,1,94,27.55a2.82,2.82,0,0,1,.26,1.09ZM91.53,45.75l7-19.11h1.66L93.27,45.75ZM92.7,28.64a1.08,1.08,0,0,0-.18-.59.27.27,0,0,0-.26-.11c-.29,0-.37.18-.44.37a.6.6,0,0,0,0,.33v5.54c0,.29,0,.7.47.7s.44-.41.44-.7Zm8.87,15.11a2.38,2.38,0,0,1-.86,1.87,1.65,1.65,0,0,1-1.15.34,1.84,1.84,0,0,1-1.79-1.09,2.41,2.41,0,0,1-.23-1.12V38.21a2.37,2.37,0,0,1,.85-1.9A1.72,1.72,0,0,1,99.56,36a1.83,1.83,0,0,1,1.75,1.11,3.34,3.34,0,0,1,.26,1.12ZM100,38.21a1.07,1.07,0,0,0-.19-.6.29.29,0,0,0-.26-.1c-.28,0-.36.18-.44.36a.77.77,0,0,0,0,.34v5.54a.72.72,0,0,0,.18.6.32.32,0,0,0,.28.13c.24,0,.32-.18.39-.36a1.43,1.43,0,0,0,.06-.37Z"/></g></g></svg>