<svg id="a12d7a51-c951-45e6-8643-387cc8b648c8" data-name="Layer 1" xmlns="http://www.w3.org/2000/svg" viewBox="0 0 678.68 69.06"><path id="b5f48322-3f68-41db-b417-3badb15e6291" data-name="Path 1" d="M9.4,65.48,3.8,50.13H667.88l5.6,15.35Z"/><g id="a3b6095d-693f-46f8-a488-eb7623101cfa" data-name="Group 2"><path id="ba8fd6e1-6733-48bb-8d14-1d119f532eeb" data-name="Path 2" d="M673.48,65.48l-5.6-15.35,1.4-46.56,5.6,15.35Z"/></g><g id="b4effd73-0207-42be-ae75-104449d120a5" data-name="Group 3"><path id="fbcf475a-5b1d-4966-a89a-67d48f3c885e" data-name="Path 3" d="M10.8,18.92,5.2,3.57H669.28l5.6,15.35Z" style="fill:#b77a39"/></g><g id="e199b2cc-7d13-4737-8307-bdeeffcbad0c" data-name="Group 4"><path id="a8cd3860-7106-446c-b71f-81bbe3c2f79a" data-name="Path 4" d="M9.41,65.48,3.8,50.13,5.2,3.57l5.6,15.35Z" style="fill:#865b2b"/></g><g id="f4964893-6f0a-4e58-b206-e786dfc7b17b" data-name="Group 5"><path id="e40d0554-20dd-4a0f-9f41-09c9a3a2ae37" data-name="Path 5" d="M674.87,18.93l-1.4,46.55H9.4l1.4-46.55Z" style="fill:#fff"/></g><g id="a6907baf-9f3f-4f1f-87e4-0889ce971a92" data-name="Group 6"><path id="bd8c6a8e-2cd3-4ec5-a2ce-25abc841310f" data-name="Path 6" d="M5.6,69.06,0,53.7,1.61,0l5.6,15.36Z"/></g><g id="a434fb0c-0046-4b9b-9924-5fb34f61f10c" data-name="Group 7"><path id="a892bf2d-14a3-43e1-960f-66183f1ee809" data-name="Path 7" d="M7.21,15.36,1.61,0H673.08l5.6,15.36Z"/></g><g id="a7dac36e-6105-432e-841a-2c14b88b8a63" data-name="Group 8"><path id="a6320e2b-52af-4a16-91ec-5d05f47f1c4c" data-name="Path 8" d="M7.21,15.36H678.68l-1.61,53.7H5.6ZM673.48,65.49l1.4-46.56H10.8L9.4,65.49H673.48"/></g><g style="isolation:isolate"><g style="isolation:isolate"><path d="M627.7,37.18a5.3,5.3,0,0,1,.55-2.42A3.23,3.23,0,0,1,631.37,33a3.3,3.3,0,0,1,3.12,1.72,5.39,5.39,0,0,1,.54,2.42V48a5.9,5.9,0,0,1-.52,2.76,3.68,3.68,0,0,1-6.29,0A6,6,0,0,1,627.7,48V46.85h2.81a14.52,14.52,0,0,0,.13,2.6c.1.49.31.67.73.67a.69.69,0,0,0,.7-.49,6.07,6.07,0,0,0,.15-1.59V44.46a2.77,2.77,0,0,1-1.4.46,2.72,2.72,0,0,1-2.65-1.61,5.8,5.8,0,0,1-.47-2.42Zm4.52-.84a.88.88,0,0,0-.85-.86.93.93,0,0,0-.86.86v5.54a.93.93,0,0,0,.86.86.84.84,0,0,0,.85-.78Z"/><path d="M641.32,43.31c0-.8-.28-1.4-.88-1.4a1,1,0,0,0-.78.52,1.76,1.76,0,0,0-.31.88H637V33.25h6.79V36H639.4v4a3.74,3.74,0,0,1,1-.57,1,1,0,0,1,.57-.08,2.74,2.74,0,0,1,2.65,1.74,5.71,5.71,0,0,1,.47,2.21v4.27a7.34,7.34,0,0,1-.54,3.14,3.18,3.18,0,0,1-3.12,1.85,3,3,0,0,1-3.12-2,9.71,9.71,0,0,1-.55-3.82h2.81v.75a7,7,0,0,0,.18,2c.13.39.34.57.68.57a.7.7,0,0,0,.65-.54,6.87,6.87,0,0,0,.2-2Z"/><path d="M649.54,40.79a2.45,2.45,0,0,1-.86,1.9,1.69,1.69,0,0,1-1.14.34,1.81,1.81,0,0,1-1.8-1.12,2.57,2.57,0,0,1-.23-1.12V35.25a2.29,2.29,0,0,1,.86-1.87,1.67,1.67,0,0,1,1.17-.34,1.82,1.82,0,0,1,1.74,1.12,2.82,2.82,0,0,1,.26,1.09Zm-2.73,11.57,7-19.11h1.66l-6.94,19.11ZM648,35.25a1.15,1.15,0,0,0-.18-.6c0-.08-.13-.1-.26-.1-.29,0-.37.18-.44.36a.64.64,0,0,0,0,.34v5.54c0,.29,0,.7.47.7s.44-.41.44-.7Zm8.87,15.11a2.38,2.38,0,0,1-.86,1.87,1.7,1.7,0,0,1-1.15.34,1.86,1.86,0,0,1-1.79-1.09,2.44,2.44,0,0,1-.23-1.12V44.82a2.37,2.37,0,0,1,.85-1.9,1.72,1.72,0,0,1,1.17-.34,1.84,1.84,0,0,1,1.75,1.12,3.29,3.29,0,0,1,.26,1.12Zm-1.56-5.54a1.07,1.07,0,0,0-.19-.6c-.05-.08-.13-.1-.26-.1-.28,0-.36.18-.44.36a.77.77,0,0,0,0,.34v5.54a.73.73,0,0,0,.18.6.34.34,0,0,0,.28.13c.24,0,.32-.19.39-.37a1.29,1.29,0,0,0,.06-.36Z"/></g></g></svg>