<svg id="f5a77425-78b2-4416-8a73-b13c8fc230c9" data-name="Layer 1" xmlns="http://www.w3.org/2000/svg" viewBox="0 0 570.83 58.08"><path id="eb0cacfd-a0c5-46cf-982b-38db64aa21fb" data-name="Path 25" d="M566.46,55.08l-4.71-12.92L562.93,3l4.7,12.92Z"/><path id="bc45776d-26ce-4447-ba4b-74bd71f31384" data-name="Path 26" d="M7.91,55.08,3.2,42.16H561.75l4.71,12.92Z"/><path id="aa9b88c8-3bb5-432b-b960-cdda5a41d314" data-name="Path 27" d="M9.08,15.92,4.37,3H562.93l4.71,12.92Z" style="fill:#a86889"/><path id="e4eba973-5b88-434f-b78f-cf0c6de6845a" data-name="Path 28" d="M7.91,55.08,3.2,42.16,4.37,3,9.08,15.92Z" style="fill:#7e4f67"/><path id="e3bb1739-8ff5-4b84-90b2-fe94b9a7550f" data-name="Path 29" d="M567.64,15.92l-1.18,39.16H7.91L9.08,15.92Z" style="fill:#fff"/><path id="ff2d5efd-3306-4499-b5c9-94cbaa45d9ad" data-name="Path 30" d="M4.71,58.08,0,45.17,1.35,0,6.06,12.92Z"/><path id="eb4414a9-a0af-41e4-bbe0-50e8f1d66cd0" data-name="Path 31" d="M6.06,12.92,1.35,0H566.12l4.71,12.92Z"/><path id="fb067f48-07d5-43a4-a28f-00c51ea28c3b" data-name="Path 32" d="M6.06,12.92H570.83l-1.35,45.16H4.71Zm560.4,42.16,1.18-39.16H9.08L7.9,55.08H566.46"/><g style="isolation:isolate"><g style="isolation:isolate"><path d="M526.72,43.76a6.94,6.94,0,0,1-.15,1.32,4,4,0,0,1-1,2,3.82,3.82,0,0,1-5.2,0,4,4,0,0,1-1-2,7.26,7.26,0,0,1-.16-1.32V41.52a5.23,5.23,0,0,1,1.46-3.77,5,5,0,0,1-1.3-3.51V32.63a5.41,5.41,0,0,1,.49-2.24,3.52,3.52,0,0,1,6.22,0,5.28,5.28,0,0,1,.47,2.24v1.61a5,5,0,0,1-1.31,3.51,5.19,5.19,0,0,1,1.46,3.77ZM524,42.64a19.21,19.21,0,0,0-.13-2.55c-.1-.55-.39-.83-.88-.83s-.78.28-.86.83a15.77,15.77,0,0,0,.08,4.73.77.77,0,0,0,.78.65.83.83,0,0,0,.88-.75A13.75,13.75,0,0,0,524,42.64Zm-.18-9a11.69,11.69,0,0,0-.13-2c-.1-.44-.34-.65-.7-.65s-.52.18-.63.57a13.64,13.64,0,0,0-.05,4.24c.08.47.31.7.68.7s.6-.23.7-.7A13.47,13.47,0,0,0,523.81,33.62Z"/><path d="M535.74,43.91a5.21,5.21,0,0,1-.46,2.08,3.65,3.65,0,0,1-1.12,1.41,3.39,3.39,0,0,1-2.16.65,3.46,3.46,0,0,1-2.19-.65A3.57,3.57,0,0,1,528.72,46a5.39,5.39,0,0,1-.47-2.08V32.65a5.37,5.37,0,0,1,.47-2,3.63,3.63,0,0,1,1.09-1.43,3.59,3.59,0,0,1,2.19-.65,3.51,3.51,0,0,1,2.16.65,3.71,3.71,0,0,1,1.12,1.43,5.18,5.18,0,0,1,.46,2Zm-2.81-11.26a1.71,1.71,0,0,0-.36-1.19.81.81,0,0,0-.57-.21.86.86,0,0,0-.83.7,1.94,1.94,0,0,0-.11.7V43.91a1.67,1.67,0,0,0,.39,1.2.75.75,0,0,0,.55.21.83.83,0,0,0,.83-.71,1.76,1.76,0,0,0,.1-.7Z"/><path d="M541.33,36.27a2.43,2.43,0,0,1-.86,1.9,1.69,1.69,0,0,1-1.14.33,1.79,1.79,0,0,1-1.79-1.11,2.44,2.44,0,0,1-.24-1.12V30.73a2.29,2.29,0,0,1,.86-1.87,1.67,1.67,0,0,1,1.17-.34,1.81,1.81,0,0,1,1.74,1.12,2.61,2.61,0,0,1,.26,1.09ZM538.6,47.84l7-19.11h1.67l-6.95,19.11Zm1.17-17.11a1.15,1.15,0,0,0-.18-.6c-.05-.08-.13-.1-.26-.1-.29,0-.36.18-.44.36a.76.76,0,0,0,0,.34v5.54c0,.28,0,.7.47.7s.44-.42.44-.7Zm8.87,15.11a2.4,2.4,0,0,1-.86,1.87,1.69,1.69,0,0,1-1.14.34,1.87,1.87,0,0,1-1.8-1.09,2.57,2.57,0,0,1-.23-1.12V40.3a2.35,2.35,0,0,1,.86-1.9,1.72,1.72,0,0,1,1.17-.34,1.82,1.82,0,0,1,1.74,1.12,3.29,3.29,0,0,1,.26,1.12Zm-1.56-5.54a1.12,1.12,0,0,0-.18-.6c0-.08-.13-.1-.26-.1-.29,0-.37.18-.45.36a.76.76,0,0,0,0,.34v5.54a.69.69,0,0,0,.18.59.34.34,0,0,0,.29.13c.23,0,.31-.18.39-.36a1.84,1.84,0,0,0,.05-.36Z"/></g></g></svg>